<svg xmlns="http://www.w3.org/2000/svg" version="1.1" xmlns:xlink="http://www.w3.org/1999/xlink" xmlns:svgjs="http://svgjs.dev/svgjs" width="1500" height="375" viewBox="0 0 1500 375"><g transform="matrix(1,0,0,1,-0.9090909090909918,-0.6076251034924951)"><svg viewBox="0 0 396 99" data-background-color="#ffffff" preserveAspectRatio="xMidYMid meet" height="375" width="1500" xmlns="http://www.w3.org/2000/svg" xmlns:xlink="http://www.w3.org/1999/xlink"><g id="tight-bounds" transform="matrix(1,0,0,1,0.2400000000000091,0.16041302732202212)"><svg viewBox="0 0 395.52 98.67917394535598" height="98.67917394535598" width="395.52"><g><svg viewBox="0 0 546.7796407742042 136.417281760055" height="98.67917394535598" width="395.52"><g transform="matrix(1,0,0,1,151.2596407742042,18.853618535579244)"><svg viewBox="0 0 395.52 98.71004468889652" height="98.71004468889652" width="395.52"><g id="textblocktransform"><svg viewBox="0 0 395.52 98.71004468889652" height="98.71004468889652" width="395.52" id="textblock"><g><svg viewBox="0 0 395.52 98.71004468889652" height="98.71004468889652" width="395.52"><g transform="matrix(1,0,0,1,0,0)"><svg width="395.52" viewBox="1 -35.85 145.44 36.300000000000004" height="98.71004468889652" data-palette-color="#7a26c1"><g class="wordmark-text-0" data-fill-palette-color="primary" id="text-0"><path d="M10.4 0.45L10.4 0.45Q7.45 0.45 6.03-1.07 4.6-2.6 4.6-6L4.6-6 4.6-19.55Q3.85-19.8 3.05-19.98 2.25-20.15 1-20.2L1-20.2Q1-20.85 1.1-21.33 1.2-21.8 1.45-22.4L1.45-22.4 4.6-22.4 4.6-29Q5.6-29.25 6.58-29.8 7.55-30.35 8.3-31L8.3-31Q8.8-30.8 8.95-30.4 9.1-30 9.1-28.4L9.1-28.4 9.1-22.4 15.6-22.4Q15.6-21.9 15.5-21.33 15.4-20.75 15.15-20.2L15.15-20.2Q13.35-20.15 11.85-19.98 10.35-19.8 9.1-19.55L9.1-19.55 9.1-7.05Q9.1-5.4 9.45-4.33 9.8-3.25 10.45-2.75 11.1-2.25 12-2.25L12-2.25Q13.05-2.25 13.83-2.55 14.6-2.85 15.3-3.45L15.3-3.45Q15.95-2.7 16.05-1.8L16.05-1.8Q15.25-0.85 13.63-0.2 12 0.45 10.4 0.45ZM30.85 0.45L30.85 0.45Q27.45 0.45 24.9-1.03 22.35-2.5 20.95-5.18 19.55-7.85 19.55-11.45L19.55-11.45Q19.55-14.85 21-17.55 22.45-20.25 25-21.8 27.55-23.35 30.85-23.35L30.85-23.35Q34.4-23.35 36.92-21.85 39.45-20.35 40.8-17.68 42.15-15 42.15-11.45L42.15-11.45Q42.15-8.05 40.72-5.35 39.3-2.65 36.77-1.1 34.25 0.45 30.85 0.45ZM31.25-1.95L31.25-1.95Q34.25-1.95 35.7-4.42 37.15-6.9 37.15-10.85L37.15-10.85Q37.15-13.95 36.22-16.23 35.3-18.5 33.75-19.73 32.2-20.95 30.35-20.95L30.35-20.95Q27.45-20.95 26.02-18.6 24.6-16.25 24.6-12.5L24.6-12.5Q24.6-9.15 25.42-6.78 26.25-4.4 27.75-3.18 29.25-1.95 31.25-1.95ZM52.9-2.7L52.2-4.3Q53.2-3.25 54.37-2.55 55.55-1.85 57.3-1.85L57.3-1.85Q58.35-1.85 59.57-2.27 60.8-2.7 61.95-3.75 63.09-4.8 63.82-6.7 64.55-8.6 64.55-11.6L64.55-11.6Q64.55-14.8 63.6-16.68 62.65-18.55 61.34-19.38 60.05-20.2 58.95-20.2L58.95-20.2Q57.5-20.2 56.1-19.28 54.7-18.35 53.8-16.25 52.9-14.15 52.9-10.65L52.9-10.65 52.9-2.7ZM57.05 0.45L57.05 0.45Q54.8 0.45 52.95 0 51.1-0.45 49.7-1.23 48.3-2 47.3-2.95L47.3-2.95Q47.85-3.65 48.12-5 48.4-6.35 48.4-9.3L48.4-9.3 48.4-28.75Q48.4-29.95 48.17-30.73 47.95-31.5 47.15-31.9 46.35-32.3 44.65-32.3L44.65-32.3Q44.65-32.85 44.75-33.3 44.85-33.75 45.1-34.15L45.1-34.15Q45.85-34.15 47.22-34.4 48.6-34.65 49.9-35.05 51.2-35.45 51.8-35.85L51.8-35.85Q52.25-35.7 52.57-35.25 52.9-34.8 52.9-33.85L52.9-33.85 52.9-20.8Q52.9-19.9 52.8-19.28 52.7-18.65 52.6-18.1L52.6-18.1 52.4-13.65 51.45-15.95Q52.1-17.55 52.57-18.4 53.05-19.25 53.3-19.65L53.3-19.65Q53.75-20.4 54.72-21.28 55.7-22.15 57.1-22.75 58.5-23.35 60.15-23.35L60.15-23.35Q63.09-23.35 65.17-22.18 67.25-21 68.37-18.55 69.5-16.1 69.5-12.25L69.5-12.25Q69.5-8.75 67.95-5.88 66.4-3 63.6-1.28 60.8 0.45 57.05 0.45ZM89.24-21.6L89.24-21.6Q89.19-20.4 89.17-19.05 89.14-17.7 89.34-16.4L89.34-16.4Q88.84-16.1 88.19-15.95 87.54-15.8 86.84-15.8L86.84-15.8Q86.74-17.2 86.02-18.45 85.29-19.7 84.09-20.5 82.89-21.3 81.24-21.3L81.24-21.3Q79.69-21.3 78.77-20.55 77.84-19.8 77.84-18.55L77.84-18.55Q77.84-17.7 78.22-17.05 78.59-16.4 79.87-15.68 81.14-14.95 83.79-13.9L83.79-13.9Q86.49-12.9 88.04-11.9 89.59-10.9 90.24-9.65 90.89-8.4 90.89-6.6L90.89-6.6Q90.89-4.5 89.69-2.9 88.49-1.3 86.42-0.43 84.34 0.45 81.74 0.45L81.74 0.45Q78.74 0.45 76.97-0.03 75.19-0.5 73.49-1.4L73.49-1.4Q73.59-2.2 73.62-3.35 73.64-4.5 73.64-5.65 73.64-6.8 73.54-7.6L73.54-7.6Q73.94-7.9 74.67-8.03 75.39-8.15 76.14-8.15L76.14-8.15Q76.54-5 78.09-3.45 79.64-1.9 82.24-1.9L82.24-1.9Q84.29-1.9 85.42-2.8 86.54-3.7 86.54-5.1L86.54-5.1Q86.54-6 86.12-6.65 85.69-7.3 84.54-7.95 83.39-8.6 81.14-9.5L81.14-9.5Q78.44-10.6 76.82-11.55 75.19-12.5 74.47-13.8 73.74-15.1 73.74-17.1L73.74-17.1Q73.74-18.7 74.54-19.88 75.34-21.05 76.62-21.83 77.89-22.6 79.34-22.98 80.79-23.35 82.04-23.35L82.04-23.35Q84.29-23.35 85.99-22.9 87.69-22.45 89.24-21.6ZM107.34-23.35L107.34-23.35Q108.79-23.35 109.87-23.1 110.94-22.85 112.19-22.45L112.19-22.45 112.19-18.6Q111.19-19.65 110.02-20.35 108.84-21.05 107.09-21.05L107.09-21.05Q106.04-21.05 104.82-20.63 103.59-20.2 102.44-19.15 101.29-18.1 100.57-16.2 99.84-14.3 99.84-11.3L99.84-11.3Q99.84-8.1 100.79-6.23 101.74-4.35 103.04-3.53 104.34-2.7 105.44-2.7L105.44-2.7Q106.94-2.7 108.32-3.63 109.69-4.55 110.59-6.65 111.49-8.75 111.49-12.25L111.49-12.25 112.94-6.95Q112.29-5.35 111.82-4.5 111.34-3.65 111.09-3.25L111.09-3.25Q110.64-2.5 109.67-1.65 108.69-0.8 107.32-0.18 105.94 0.45 104.24 0.45L104.24 0.45Q101.34 0.45 99.24-0.73 97.14-1.9 96.02-4.35 94.89-6.8 94.89-10.65L94.89-10.65Q94.89-14.15 96.44-17.03 97.99-19.9 100.79-21.63 103.59-23.35 107.34-23.35ZM112.54-6.8L115.99-6.8Q115.99-5.65 116.19-4.88 116.39-4.1 117.07-3.75 117.74-3.4 119.09-3.4L119.09-3.4Q119.09-2.9 119.04-2.27 118.99-1.65 118.79-1.1L118.79-1.1Q117.54-1.05 115.89-0.63 114.24-0.2 113.09 0.45L113.09 0.45Q112.59 0.2 112.22-0.28 111.84-0.75 111.84-2.45L111.84-2.45Q111.84-3.45 112.02-4.23 112.19-5 112.54-6.8L112.54-6.8ZM111.49-28.75L115.99-28.75 115.99-6.35 111.49-6.35 111.49-28.75ZM114.89-35.85L114.89-35.85Q115.34-35.7 115.67-35.25 115.99-34.8 115.99-33.85L115.99-33.85 115.99-26.9 111.49-26.9 111.49-28.75Q111.49-29.95 111.27-30.73 111.04-31.5 110.24-31.9 109.44-32.3 107.74-32.3L107.74-32.3Q107.74-32.85 107.84-33.3 107.94-33.75 108.19-34.15L108.19-34.15Q108.94-34.15 110.29-34.4 111.64-34.65 112.97-35.05 114.29-35.45 114.89-35.85ZM129.84-2.7L129.14-4.3Q130.14-3.25 131.31-2.55 132.49-1.85 134.24-1.85L134.24-1.85Q135.29-1.85 136.51-2.27 137.74-2.7 138.89-3.75 140.04-4.8 140.76-6.7 141.49-8.6 141.49-11.6L141.49-11.6Q141.49-14.8 140.54-16.68 139.59-18.55 138.29-19.38 136.99-20.2 135.89-20.2L135.89-20.2Q134.44-20.2 133.04-19.28 131.64-18.35 130.74-16.25 129.84-14.15 129.84-10.65L129.84-10.65 129.84-2.7ZM133.99 0.45L133.99 0.45Q131.74 0.45 129.89 0 128.04-0.45 126.64-1.23 125.24-2 124.24-2.95L124.24-2.95Q124.79-3.65 125.06-5 125.34-6.35 125.34-9.3L125.34-9.3 125.34-28.75Q125.34-29.95 125.11-30.73 124.89-31.5 124.09-31.9 123.29-32.3 121.59-32.3L121.59-32.3Q121.59-32.85 121.69-33.3 121.79-33.75 122.04-34.15L122.04-34.15Q122.79-34.15 124.16-34.4 125.54-34.65 126.84-35.05 128.14-35.45 128.74-35.85L128.74-35.85Q129.19-35.7 129.51-35.25 129.84-34.8 129.84-33.85L129.84-33.85 129.84-20.8Q129.84-19.9 129.74-19.28 129.64-18.65 129.54-18.1L129.54-18.1 129.34-13.65 128.39-15.95Q129.04-17.55 129.51-18.4 129.99-19.25 130.24-19.65L130.24-19.65Q130.69-20.4 131.66-21.28 132.64-22.15 134.04-22.75 135.44-23.35 137.09-23.35L137.09-23.35Q140.04-23.35 142.11-22.18 144.19-21 145.31-18.55 146.44-16.1 146.44-12.25L146.44-12.25Q146.44-8.75 144.89-5.88 143.34-3 140.54-1.28 137.74 0.45 133.99 0.45Z" fill="#7a26c1" data-fill-palette-color="primary"></path></g></svg></g></svg></g></svg></g></svg></g><g><svg viewBox="0 0 127.95656826422827 136.417281760055" height="136.417281760055" width="127.95656826422827"><g><svg xmlns="http://www.w3.org/2000/svg" xmlns:xlink="http://www.w3.org/1999/xlink" version="1.0" x="0" y="0" viewBox="2.977 1 45.023 48" enable-background="new 0 0 50 50" xml:space="preserve" height="136.417281760055" width="127.95656826422827" class="icon-icon-0" data-fill-palette-color="accent" id="icon-0"><g fill="#7a26c1" data-fill-palette-color="accent"><g fill="#7a26c1" data-fill-palette-color="accent"><path fill="#7a26c1" d="M25.545 10.997c12.468 0 21.576-2.238 21.576-4.999C47.121 3.238 38.014 1 25.545 1 13.077 1 3.97 3.238 3.97 5.999 3.97 8.759 13.077 10.997 25.545 10.997z" data-fill-palette-color="accent"></path><path fill="#7a26c1" d="M41.424 30.931c2.299 0 4.592 0.908 6.131 2.381C47.637 33.241 47 33.171 48 33.103V22.224c-5 2.167-13.603 3.289-22.501 3.289S8 24.391 3 22.224v10.877c2 1.685 10.002 3.748 22.289 3.748 2.846 0 5.591-0.114 7.97-0.306C34.466 33.271 37.73 30.931 41.424 30.931z" data-fill-palette-color="accent"></path><path fill="#7a26c1" d="M32.852 39.503c0-0.384 0.035-0.758 0.084-1.128-2.398 0.175-5.152 0.267-7.646 0.267C16.391 38.642 8 37.521 3 35.353v8.564c0 0.066-0.023 0.133-0.023 0.2S3 44.25 3 44.316v0.007l0 0C3 46.714 13.422 49 25.289 49c5.361 0 10.304-0.44 14.067-1.153C35.558 46.967 32.852 43.569 32.852 39.503z" data-fill-palette-color="accent"></path><path fill="#7a26c1" d="M48 19.974V9.065c-4 2.376-13.331 3.607-22.501 3.607S7 11.441 3 9.065v10.909c2 1.685 10.212 3.747 22.499 3.747C37.788 23.721 46 21.658 48 19.974z" data-fill-palette-color="accent"></path></g><g fill="#7a26c1" data-fill-palette-color="accent"><g fill="#7a26c1" data-fill-palette-color="accent"><path fill="#7a26c1" d="M43.477 45.06c0 0.838-0.898 1.52-1.738 1.518l0 0c-0.84 0.002-1.738-0.68-1.738-1.52v-5.873c0-0.838 0.9-1.52 1.74-1.52l0 0c0.836 0.002 1.626 0.682 1.629 1.52L43.477 45.06z" data-fill-palette-color="accent"></path></g><polygon fill="#7a26c1" points="36.717,42 41.959,32.921 47.201,42   " data-fill-palette-color="accent"></polygon></g></g></svg></g></svg></g></svg></g><defs></defs></svg><rect width="395.52" height="98.67917394535598" fill="none" stroke="none" visibility="hidden"></rect></g></svg></g></svg>